<?xml version="1.0" encoding="utf-8"?>
<!-- Generator: Adobe Illustrator 19.0.0, SVG Export Plug-In . SVG Version: 6.00 Build 0)  -->
<svg version="1.1" id="图层_1" xmlns="http://www.w3.org/2000/svg" xmlns:xlink="http://www.w3.org/1999/xlink" x="462px" y="73px"
	 viewBox="0 0 462.7 73.2" style="enable-background:new 0 0 462.7 73.2;" xml:space="preserve">
<style type="text/css">
	.st0{fill:#443D69;}
	.st1{fill:#342E55;}
	.st2{fill:#00BBFF;}
</style>
<g id="XMLID_518_">
	<g id="XMLID_532_">
		<path id="XMLID_591_" class="st0" d="M301.6,23c-1.9,1.6-5,3.3-7.5,4.3c-0.3-0.3-1-1.1-1.4-1.4c2.5-0.9,5.4-2.2,7.1-3.6L301.6,23z
			 M318.5,12.4V14H293v-1.6h11.8c-0.3-0.5-0.6-1-0.9-1.4l1.6-0.6c0.5,0.6,1,1.3,1.3,2H318.5z M315.3,10.5h-18.9V2.6h18.9V10.5z
			 M306.8,21.5v4.5c0,1-0.2,1.4-1,1.6c-0.8,0.3-2.1,0.3-4.1,0.3c-0.1-0.5-0.3-1.1-0.6-1.6c1.6,0.1,2.9,0.1,3.3,0.1
			c0.4,0,0.5-0.1,0.5-0.5v-4.4H297v-5.8h17.7v5.8H306.8z M313.4,3.9h-15.1v1.9h15.1V3.9z M313.4,7.1h-15.1v2h15.1V7.1z M298.9,20
			h13.9v-3h-13.9V20z M310.7,22.4c2.6,1,6,2.5,7.7,3.7l-1.3,1.3c-1.6-1.2-5-2.8-7.6-3.8L310.7,22.4z"/>
		<path id="XMLID_600_" class="st0" d="M341.6,14.6c-1,2.8-2.4,5-4.2,6.8c3.6,1.5,6.9,3.1,9.1,4.5l-1.6,1.7
			c-2.2-1.4-5.5-3.2-9.2-4.8c-3,2.4-6.9,3.9-11.6,4.9c-0.2-0.5-0.8-1.3-1.2-1.7c4.4-0.8,8.1-2.1,10.9-4c-2.6-1.1-5.3-2.1-7.8-2.8
			l0,0c1-1.2,2.1-2.8,3.1-4.5h-6.7v-1.9h7.8c1-1.6,1.8-3.3,2.4-4.7l2,0.4c-0.6,1.3-1.3,2.8-2.1,4.3h14.7v1.9H341.6z M325.1,10.5
			h-1.9V4.8h10.7c-0.4-0.9-1-2.1-1.4-2.9l1.9-0.5c0.6,1.1,1.3,2.5,1.7,3.4h10.3v5.7h-2V6.6h-19.3V10.5z M331.4,14.6
			c-0.8,1.4-1.6,2.6-2.4,3.7c2.1,0.7,4.3,1.5,6.4,2.3c1.7-1.6,3.1-3.6,4-6H331.4z"/>
		<path id="XMLID_604_" class="st0" d="M359.1,5.9h5.4v19.7h-1.8v-1.5h-9.2V26h-1.7V5.9h5.4V1.5h1.9V5.9z M353.5,7.6v6.3h3.8V7.6
			H353.5z M353.5,22.4h3.8v-6.8h-3.8V22.4z M362.7,7.6H359v6.3h3.7V7.6z M362.7,22.4v-6.8H359v6.8H362.7z M376.5,3.8
			c-1.1,2.6-2.4,5.9-3.7,8.6c2.7,2.7,3.4,5,3.4,7c0,1.6-0.4,3-1.3,3.6c-0.5,0.3-1.1,0.5-1.8,0.6c-0.8,0.1-1.7,0.1-2.6,0
			c-0.1-0.5-0.2-1.3-0.6-1.9c0.9,0.1,1.8,0.1,2.4,0.1c0.5-0.1,0.9-0.1,1.2-0.3c0.6-0.4,0.8-1.3,0.8-2.3c0-1.9-0.8-4-3.5-6.7
			c1.2-2.5,2.3-5.5,3.2-7.8h-5v22.9h-1.7V3h7.5l0.3-0.1L376.5,3.8z"/>
		<path id="XMLID_611_" class="st0" d="M387.9,2.1c-0.8,2.1-1.8,4.3-2.9,6.3v19.4h-1.8V11.4c-0.9,1.3-1.9,2.6-2.8,3.6
			c-0.2-0.5-0.8-1.4-1.1-1.9c2.7-2.8,5.3-7.2,6.8-11.6L387.9,2.1z M405.6,17.8h-7.9v10.1h-1.9V17.8h-8.4v-1.9h8.4V9.3H391
			c-0.6,1.7-1.3,3.3-2.1,4.5c-0.4-0.3-1.2-0.8-1.6-1c1.7-2.4,2.9-6.1,3.6-9.9l1.8,0.3c-0.3,1.4-0.6,2.9-1,4.2h4.2V1.8h1.9v5.6h6.7
			v1.9h-6.7v6.6h7.9V17.8z"/>
		<path id="XMLID_614_" class="st0" d="M411.9,18.9H410V5h1.9V18.9z M415.8,1.5h1.9v11.4c0,5.8-0.6,11.1-5.7,15
			c-0.3-0.4-1-1.1-1.5-1.4c4.7-3.5,5.3-8.3,5.3-13.6V1.5z M433.4,4.1v23.2h-2v-2h-11.7v-1.9h11.7v-8.1h-10.2v-1.9h10.2V6h-11.1V4.1
			H433.4z"/>
		<path id="XMLID_620_" class="st0" d="M446.2,17.3c-0.5-1-1.6-2.8-2.5-4.3v14.8h-1.9V13.6c-1,3.4-2.4,6.7-3.8,8.7
			c-0.3-0.5-0.7-1.2-1.1-1.7c1.8-2.5,3.7-7.1,4.5-11.2h-3.9V7.7h4.3V1.5h1.9v6.3h3.7v1.8h-3.7v1.2c0.8,1,3.2,4.3,3.7,5.2L446.2,17.3
			z M456,12.1h6.5v15.5h-1.9v-1.9h-13.7v-1.9h13.7v-4.2h-12.8v-1.8h12.8v-4h-13.1v-1.9h6.7V1.6h1.9V12.1z M450.2,10.6
			c-0.5-1.8-1.6-4.5-2.6-6.6l1.6-0.6c1,2.1,2.2,4.8,2.7,6.5L450.2,10.6z M462.7,3.9c-1,2.3-2.2,5.2-3.2,6.9l-1.5-0.5
			c1-1.8,2.2-4.8,2.9-6.9L462.7,3.9z"/>
	</g>
	<g id="XMLID_531_">
		<path id="XMLID_583_" class="st1" d="M0,1.2h35.2V10H10v17.9h24.9v8.8H10v18.6h25.2v8.9H0V1.2z"/>
		<path id="XMLID_588_" class="st1" d="M52.5,45.5c0.7,9.4,7.3,11.3,10.6,11.3c5.6,0,10.5-4.4,10.5-10c0-7-6-8.6-14-11.6
			c-4.9-1.6-15.9-5.3-15.9-17.1C43.6,6.4,53.6,0,63.5,0c8.1,0,18.2,4.4,19,17.4h-9.9c-0.7-3.4-2.2-8.9-9.5-8.9
			c-5.1,0-9.5,3.5-9.5,8.9c0,6.1,4.7,7.7,14.8,11.4c7.8,3.3,15.2,7.3,15.2,17.5s-6.9,19.1-20.3,19.1c-12.5,0-20.5-7.7-20.7-19.8
			H52.5z"/>
	</g>
	<g id="XMLID_530_">
		<path id="XMLID_535_" class="st1" d="M229.8,64.2h-8.9v-8.1c-3.2,6.2-9.9,9.4-17.2,9.4C188.8,65.5,180,54,180,41
			c0-14.1,10.3-24.5,23.8-24.5c9.2,0,15.1,5.1,17.2,9.5v-8.2h8.9V64.2z M188.8,41.2c0.1,6.9,4.9,16.1,16.2,16.1
			c7.1,0,12.1-3.9,14.4-9.2c1-2.1,1.5-4.5,1.6-6.9c0.1-2.4-0.3-4.8-1.4-6.9c-2.2-5.4-7.4-9.5-14.8-9.5
			C195.1,24.8,188.8,32.4,188.8,41.2L188.8,41.2z"/>
		<path id="XMLID_562_" class="st1" d="M241.4,1.2h8.9v9.4h-8.9V1.2z M241.4,17.9h8.9v46.3h-8.9V17.9z"/>
		<path id="XMLID_566_" class="st1" d="M261.9,1.2h8.9v63h-8.9V1.2z"/>
	</g>
	<g id="XMLID_529_">
		<path id="XMLID_109_" class="st0" d="M296.9,64.5h-4.8l11.3-26.9h4l11.1,26.9h-4.8l-2.6-6.4h-11.7L296.9,64.5z M305.3,42.6
			l-4.6,12.1h9.4L305.3,42.6z"/>
		<path id="XMLID_397_" class="st0" d="M321.3,44.7h3.6v2.9c1.2-2.3,3.3-3.5,6-3.5v3.8h-0.3c-3.6,0-5.5,2-5.5,5.9v10.7h-3.9V44.7z"
			/>
		<path id="XMLID_461_" class="st0" d="M352.5,57.6c-1.2,4.3-5.2,7.5-10.2,7.5c-6.6,0-10.8-5-10.8-10.5c0-5.9,4.6-10.5,10.6-10.5
			c4.8,0,9.2,2.9,10.4,7.7h-4c-1-2.7-3.6-4.1-6.3-4.1c-2,0-3.5,0.6-4.9,1.9c-1.2,1.2-2,3-2,5c0,4.1,3,7,6.9,7c3.4,0,5.5-2,6.3-4
			H352.5z"/>
		<path id="XMLID_476_" class="st0" d="M355.9,37.6h3.9v6.8v3.1c1.2-2.3,3.9-3.4,6.6-3.3c3.2,0,5.2,1,6.5,2.8
			c1.3,1.7,1.7,4.1,1.7,6.8v10.8h-3.9V53.9c0-1.8-0.3-3.3-1.2-4.4c-0.9-1.1-2.2-1.7-4.2-1.7c-2,0-3.5,0.8-4.3,1.8
			c-0.9,1.1-1.2,2.5-1.2,3.8v11.2h-3.9V37.6z"/>
		<path id="XMLID_484_" class="st0" d="M379.5,37.6h3.9v4h-3.9V37.6z M379.5,44.7h3.9v19.8h-3.9V44.7z"/>
		<path id="XMLID_490_" class="st0" d="M397.9,64.5H394l-7.7-19.8h4l5.6,15.1l5.6-15.1h4L397.9,64.5z"/>
		<path id="XMLID_492_" class="st0" d="M408.5,37.6h3.9v4h-3.9V37.6z M408.5,44.7h3.9v19.8h-3.9V44.7z"/>
		<path id="XMLID_512_" class="st0" d="M417.4,44.7h3.6v3.1c1-2,3.2-3.7,6.8-3.6c6.5,0.1,8.2,4.7,8.2,8.8v11.6h-3.9V53.8
			c0-3.6-1.4-6.1-5.3-6.1c-3.8,0-5.5,2.4-5.5,5.8v11h-3.9V44.7z"/>
		<path id="XMLID_514_" class="st0" d="M461.4,62.2c0,3.5-0.9,5.7-2.4,7.4c-1.9,2.1-5,3.6-8.5,3.6c-5.7,0-9.1-3.3-10-6.6h4.5
			c0.4,0.9,1.2,1.7,2.2,2.3c1.2,0.8,2.6,1.1,3.5,1.1c3.4,0,6.9-2.4,6.9-6.9v-2c-1.2,2.2-3.6,4.1-7.3,4.1c-6,0-10.4-4.5-10.4-10.4
			c0-6.2,4.6-10.6,10.4-10.6c3.4,0,6.2,1.7,7.3,3.9v-3.3h3.9V62.2z M443.7,54.6c0,3.7,2.7,7,7,7c2,0,3.7-0.8,5-2
			c1.2-1.2,1.9-2.9,2-4.8c0-1.6-0.5-3.3-1.6-4.7c-1.1-1.4-2.9-2.3-5.3-2.3C446.9,47.7,443.7,50.5,443.7,54.6L443.7,54.6z"/>
	</g>
	<g id="XMLID_520_">
		<g id="XMLID_528_">
			<rect id="XMLID_648_" x="107.5" y="0.1" class="st2" width="9.9" height="63.1"/>
		</g>
		<g id="XMLID_527_">
			<rect id="XMLID_646_" x="114.7" y="0.1" class="st2" width="9.9" height="9"/>
		</g>
		<g id="XMLID_526_">
			<rect id="XMLID_644_" x="114.7" y="54.2" class="st2" width="9.9" height="9"/>
		</g>
		<g id="XMLID_525_">
			<rect id="XMLID_642_" x="165" y="0.1" class="st2" width="9.9" height="63.1"/>
		</g>
		<g id="XMLID_524_">
			<rect id="XMLID_640_" x="157.8" y="0.1" class="st2" width="9.9" height="9"/>
		</g>
		<g id="XMLID_523_">
			<rect id="XMLID_638_" x="157.8" y="54.2" class="st2" width="9.9" height="9"/>
		</g>
		<g id="XMLID_522_">
			<polygon id="XMLID_636_" class="st2" points="144.6,28.2 135.9,28.2 126.5,10 135.2,10 			"/>
		</g>
		<g id="XMLID_521_">
			<polygon id="XMLID_634_" class="st2" points="138.4,28.2 147.1,28.2 156.5,10 147.8,10 			"/>
		</g>
	</g>
</g>
</svg>
